<svg width="291" height="238" viewBox="0 0 291 238" fill="none" xmlns="http://www.w3.org/2000/svg">
<path d="M254.146 100.052C253.081 104.691 252.053 109.509 251.614 114.251C251.296 117.784 251.33 121.415 252.267 124.857C253.479 129.402 256.244 133.346 259.009 137.08C261.758 140.661 268.422 149.241 270.869 152.769C273.101 155.946 275.357 159.366 277.29 162.726C280.826 168.846 283.726 175.401 285.816 182.155C287.586 187.937 288.824 193.971 288.978 200.029C289.123 206.188 288.117 212.449 285.551 218.077C281.599 226.785 274.663 231.946 265.509 234.315C258.841 236.087 251.462 235.993 244.597 236.166L48.8523 236.251L40.2323 236.207C39.1313 236.171 36.9483 236.153 35.8513 236.103C31.7413 235.948 27.4683 235.702 23.4053 235.072C20.8213 234.665 18.2143 234.118 15.7643 233.188C13.6993 232.401 11.7273 231.317 10.0423 229.88C8.41527 228.504 7.07027 226.8 6.04827 224.933C4.68727 222.456 3.85226 219.707 3.23326 216.96C2.12326 211.889 1.76626 206.631 2.14726 201.456C2.31326 199.369 2.60127 197.256 3.19427 195.244C3.72127 193.432 4.49627 191.684 5.39427 190.027C6.52627 187.933 7.92627 185.846 9.29727 183.898C16.8753 173.331 28.2023 160.398 35.8363 149.893C37.9713 146.832 40.0963 143.487 40.3703 139.669C40.5913 136.694 39.9463 133.715 39.0893 130.882C37.6193 126.14 35.3913 121.586 33.0483 117.22C30.2403 112.139 25.1453 103.229 22.6973 98.1332C20.6133 93.8442 18.6883 89.3102 17.1963 84.7822C15.6473 80.0392 14.4253 75.1012 14.1903 70.1002C13.8223 62.4012 16.2713 54.6122 22.8123 50.0572C25.9073 47.8892 29.6063 46.6802 33.3413 46.2472C37.3543 45.7712 41.4393 46.1822 45.3743 47.0412C52.3123 48.5182 59.9033 51.5962 66.5903 54.0212C68.7133 54.7542 70.9053 55.5082 73.1253 55.8682C74.3573 56.0642 75.6313 56.1292 76.8613 55.8922C78.7393 55.5472 80.3713 54.4282 81.7073 53.1042C82.9003 51.9252 83.9343 50.5592 84.8843 49.1792C87.5343 45.2762 90.4133 39.8852 92.9333 35.8852C96.8463 29.5962 101.679 23.5252 108.286 19.9312C112.767 17.5012 117.973 16.3632 123.056 16.8682C129.619 17.5082 135.567 20.9952 141.195 24.1922C142.795 25.0582 144.675 26.0422 146.529 25.4332C147.997 24.9442 149.088 23.7552 150.029 22.5782C153.404 18.2122 155.876 12.6292 159.91 8.79622C162.58 6.26822 166 4.68822 169.469 3.57522C173.799 2.23222 178.473 1.50522 182.968 2.38422C186.815 3.12922 190.364 5.14322 193.094 7.93922C195.439 10.3252 197.241 13.2302 198.918 16.1082C201.835 21.2512 204.874 26.9352 208.69 31.4542C209.976 32.9652 211.375 34.4402 213.045 35.5302C214.202 36.2792 215.536 36.8212 216.928 36.8512C218.183 36.8872 219.42 36.4892 220.495 35.8572C221.519 35.2592 222.425 34.4672 223.263 33.6332C225.852 31.0432 228.627 27.0572 230.988 24.2452C234.33 20.1812 238.139 16.3572 242.758 13.7642C247.8 10.8982 253.828 9.36122 259.575 10.6762C262.865 11.4142 266.079 12.9742 268.317 15.5472C269.177 16.5412 269.854 17.6932 270.321 18.9202C271.349 21.6302 271.452 24.5962 271.32 27.4622C271.141 31.0072 270.539 34.6532 269.897 38.1422C266.37 56.6182 258.454 81.6522 254.146 100.052Z" stroke="#C346FF" stroke-width="2.5" stroke-miterlimit="10" stroke-linecap="round" stroke-linejoin="round"/>
<path d="M92.1963 80.9022C105.468 83.2252 119.174 83.4312 132.611 82.9372C153.472 82.0872 174.982 79.2382 195.572 75.8032" stroke="#C346FF" stroke-width="2.5" stroke-miterlimit="10" stroke-linecap="round" stroke-linejoin="round"/>
<path d="M121.789 60.5302C121.791 59.8122 121.545 59.0972 121.103 58.5312C120.663 57.9642 120.03 57.5502 119.334 57.3752C117.268 56.8532 115.264 58.4272 115.281 60.5582C115.3 62.6652 117.291 64.2012 119.334 63.6842C120.03 63.5092 120.664 63.0952 121.103 62.5282C121.545 61.9632 121.791 61.2482 121.789 60.5302Z" stroke="#C346FF" stroke-width="2.5" stroke-miterlimit="10" stroke-linecap="round" stroke-linejoin="round"/>
<path d="M177.487 54.0212C177.489 53.3032 177.243 52.5882 176.801 52.0222C176.361 51.4552 175.728 51.0412 175.032 50.8662C172.966 50.3442 170.962 51.9182 170.979 54.0492C170.998 56.1562 172.989 57.6922 175.032 57.1752C175.728 57.0002 176.362 56.5862 176.801 56.0192C177.243 55.4552 177.488 54.7392 177.487 54.0212Z" stroke="#C346FF" stroke-width="2.5" stroke-miterlimit="10" stroke-linecap="round" stroke-linejoin="round"/>
</svg>
